<svg width="265" height="43" viewBox="0 0 265 43" fill="none" xmlns="http://www.w3.org/2000/svg">
<path d="M1.51562 1.46875H13.0234V5.52344H10.0469V32.9688C10.0469 33.3125 9.96094 33.7188 9.78906 34.1875C9.63281 34.6406 9.42188 35.125 9.15625 35.6406C8.90625 36.1562 8.60938 36.6797 8.26562 37.2109C7.92188 37.7578 7.57812 38.2891 7.23438 38.8047C6.40625 40.0078 5.46875 41.2656 4.42188 42.5781L0.390625 42.2266C1.3125 40.8203 2.14062 39.4766 2.875 38.1953C3.1875 37.6484 3.49219 37.0938 3.78906 36.5312C4.08594 35.9531 4.35156 35.3984 4.58594 34.8672C4.82031 34.3359 5.00781 33.8438 5.14844 33.3906C5.30469 32.9219 5.38281 32.5234 5.38281 32.1953V5.52344H1.51562V1.46875ZM16 24.8594C16.0156 22.9375 16.3203 21.1875 16.9141 19.6094C17.5234 18.0312 18.3672 16.6797 19.4453 15.5547C20.5234 14.4141 21.8047 13.5391 23.2891 12.9297C24.7734 12.3203 26.4062 12.0156 28.1875 12.0156C29.9844 12.0156 31.625 12.3203 33.1094 12.9297C34.6094 13.5391 35.8906 14.4062 36.9531 15.5312C38.0156 16.6406 38.8438 17.9844 39.4375 19.5625C40.0312 21.1406 40.3281 22.8906 40.3281 24.8125C40.3281 26.7031 40.0312 28.4453 39.4375 30.0391C38.8438 31.6172 38.0156 32.9766 36.9531 34.1172C35.8906 35.2578 34.6094 36.1484 33.1094 36.7891C31.625 37.4141 29.9844 37.7266 28.1875 37.7266C26.3594 37.7266 24.7031 37.4141 23.2188 36.7891C21.7344 36.1641 20.4609 35.2891 19.3984 34.1641C18.3359 33.0234 17.5078 31.6641 16.9141 30.0859C16.3203 28.5078 16.0156 26.7656 16 24.8594ZM20.6172 24.8594C20.6172 26.25 20.8125 27.5078 21.2031 28.6328C21.6094 29.7578 22.1562 30.7188 22.8438 31.5156C23.5469 32.2969 24.3516 32.9062 25.2578 33.3438C26.1797 33.7656 27.1562 33.9766 28.1875 33.9766C29.2656 33.9766 30.2656 33.7656 31.1875 33.3438C32.125 32.9219 32.9375 32.3203 33.625 31.5391C34.3125 30.7422 34.8516 29.7812 35.2422 28.6562C35.6328 27.5312 35.8281 26.2656 35.8281 24.8594C35.8281 23.3906 35.6328 22.0859 35.2422 20.9453C34.8516 19.8047 34.3125 18.8516 33.625 18.0859C32.9531 17.3203 32.1484 16.7422 31.2109 16.3516C30.2734 15.9609 29.2656 15.7656 28.1875 15.7656C27.1562 15.7656 26.1797 15.9609 25.2578 16.3516C24.3516 16.7422 23.5469 17.3203 22.8438 18.0859C22.1562 18.8516 21.6094 19.8047 21.2031 20.9453C20.8125 22.0859 20.6172 23.3906 20.6172 24.8594ZM45.3906 0.53125H53.0781V15.3906H53.2188C53.6562 14.9531 54.1562 14.5469 54.7188 14.1719C55.2969 13.7812 55.8984 13.4453 56.5234 13.1641C57.1484 12.8828 57.7969 12.6641 58.4688 12.5078C59.1406 12.3516 59.8438 12.2734 60.5781 12.2734C61.875 12.2734 63.0469 12.4531 64.0938 12.8125C65.1406 13.1719 66.0312 13.7188 66.7656 14.4531C67.5 15.1875 68.0625 16.1328 68.4531 17.2891C68.8594 18.4297 69.0625 19.7812 69.0625 21.3438V32.9688H72.7188V37H61.1875V32.9688H64.5156V21.8828C64.5156 20.0234 64.0391 18.6172 63.0859 17.6641C62.1484 16.6953 60.7969 16.2109 59.0312 16.2109C58.0312 16.2109 57.0156 16.4531 55.9844 16.9375C54.9531 17.4062 53.9844 18 53.0781 18.7188V32.9688H56.5938V37H45.0625V32.9688H48.7188V4.5625H45.3906V0.53125ZM92.7812 32.9688H96.2031V21.8828C96.2031 20.0234 95.7266 18.6172 94.7734 17.6641C93.8359 16.6953 92.4844 16.2109 90.7188 16.2109C89.7031 16.2109 88.6797 16.4531 87.6484 16.9375C86.6172 17.4219 85.6406 18.0234 84.7188 18.7422V32.9688H88.1406V37H76.7969V32.9688H80.1719V16.75H76.7969V12.7188H84.5312V15.5781H84.5781C85.0938 15.125 85.6406 14.6953 86.2188 14.2891C86.8125 13.8828 87.4297 13.5312 88.0703 13.2344C88.7109 12.9375 89.375 12.7031 90.0625 12.5312C90.7656 12.3594 91.5 12.2734 92.2656 12.2734C93.5625 12.2734 94.7344 12.4531 95.7812 12.8125C96.8281 13.1719 97.7188 13.7188 98.4531 14.4531C99.1875 15.1875 99.75 16.1328 100.141 17.2891C100.547 18.4297 100.75 19.7812 100.75 21.3438V32.9688H104.125V37H92.7812V32.9688ZM117.438 12.7188H125.125V16.75H124L128.242 32.2422L134.055 12.7188H137.711L143.266 32.1953L147.695 16.75H146.289V12.7188H153.977V16.75H151.891L145.234 37.375H141.203L135.695 17.9922L130.211 37.375H126.133L119.523 16.75H117.438V12.7188ZM157.562 12.7188H165.484V32.9688H169.141V37H157.609V32.9688H161.078V16.75H157.562V12.7188ZM160.258 4.11719C160.258 3.71094 160.336 3.32812 160.492 2.96875C160.664 2.59375 160.883 2.27344 161.148 2.00781C161.43 1.72656 161.758 1.50781 162.133 1.35156C162.508 1.17969 162.906 1.09375 163.328 1.09375C163.734 1.09375 164.117 1.17969 164.477 1.35156C164.852 1.50781 165.172 1.72656 165.438 2.00781C165.719 2.27344 165.938 2.59375 166.094 2.96875C166.266 3.32812 166.352 3.71094 166.352 4.11719C166.352 4.53906 166.266 4.9375 166.094 5.3125C165.938 5.6875 165.719 6.02344 165.438 6.32031C165.172 6.60156 164.852 6.82812 164.477 7C164.117 7.15625 163.734 7.23438 163.328 7.23438C162.906 7.23438 162.508 7.15625 162.133 7C161.758 6.82812 161.43 6.60156 161.148 6.32031C160.883 6.02344 160.664 5.6875 160.492 5.3125C160.336 4.9375 160.258 4.53906 160.258 4.11719ZM190.703 19.1875C190.047 18.0156 189.211 17.1562 188.195 16.6094C187.195 16.0625 186.031 15.7891 184.703 15.7891C183.688 15.7891 182.734 16 181.844 16.4219C180.953 16.8438 180.172 17.4453 179.5 18.2266C178.844 19.0078 178.32 19.9609 177.93 21.0859C177.555 22.1953 177.367 23.4375 177.367 24.8125C177.367 26.1719 177.555 27.3984 177.93 28.4922C178.32 29.5859 178.852 30.5234 179.523 31.3047C180.195 32.0703 180.969 32.6641 181.844 33.0859C182.734 33.4922 183.688 33.6953 184.703 33.6953C186.203 33.6953 187.508 33.3359 188.617 32.6172C189.727 31.8828 190.609 30.8125 191.266 29.4062L194.875 31.1875C194.406 32.1875 193.828 33.0859 193.141 33.8828C192.453 34.6797 191.672 35.3594 190.797 35.9219C189.938 36.4844 188.984 36.9141 187.938 37.2109C186.906 37.5234 185.812 37.6797 184.656 37.6797C182.969 37.6797 181.406 37.3672 179.969 36.7422C178.547 36.1016 177.312 35.2109 176.266 34.0703C175.234 32.9297 174.43 31.5703 173.852 29.9922C173.273 28.4141 172.984 26.6875 172.984 24.8125C172.984 22.9375 173.289 21.2109 173.898 19.6328C174.508 18.0547 175.344 16.7031 176.406 15.5781C177.469 14.4375 178.711 13.5469 180.133 12.9062C181.555 12.2656 183.078 11.9453 184.703 11.9453C186.234 11.9453 187.68 12.2109 189.039 12.7422C190.414 13.2734 191.617 14.0781 192.648 15.1562H195.109V19.1875H190.703ZM199.188 0.53125H207.742V4.5625H207.695V22.7031H211.914L217.68 16.75H216.227V12.7188H225.438V16.75H222.367L214.984 24.3672L223.047 32.9688H225.977V37H220.844L210.906 26.1484H207.695V32.9688H209.711V37H199.328V32.9688H203.312V4.5625H199.188V0.53125ZM239.828 23.0312L252.461 1.46875H257.453L245.43 22.7031H254.523V16.8438L259.117 16.5156V22.7031H264.414V26.7344H259.117V32.9688H262.633V37H251.102V32.9688H254.523V26.7344H239.781L239.828 23.0312Z" fill="url(#paint0_linear_21_6)"/>
<defs>
<linearGradient id="paint0_linear_21_6" x1="-2" y1="25.5" x2="271" y2="25.5" gradientUnits="userSpaceOnUse">
<stop stop-color="white"/>
<stop offset="1" stop-color="#F2CD8C"/>
</linearGradient>
</defs>
</svg>
